<svg xmlns="http://www.w3.org/2000/svg" xmlns:xlink="http://www.w3.org/1999/xlink" viewBox="0 0 1175.94 244.51"><defs><style>.cls-1{fill:none;}.cls-2{isolation:isolate;}.cls-3{clip-path:url(#clip-path);}.cls-4{fill:#1c3694;}.cls-5{fill:#f18222;}.cls-6{clip-path:url(#clip-path-3);}.cls-7{mask:url(#mask);}.cls-8{clip-path:url(#clip-path-4);}.cls-9{fill:#231f20;opacity:0.36;mix-blend-mode:multiply;}</style><clipPath id="clip-path" transform="translate(-34.12 -565.3)"><rect class="cls-1" x="34.12" y="565.3" width="1175.94" height="232.44"/></clipPath><clipPath id="clip-path-3" transform="translate(-34.12 -565.3)"><polygon class="cls-1" points="849.09 569.63 777.98 645.07 777.98 569.63 737.97 569.63 737.97 751.6 777.98 751.6 777.98 692.98 800.92 669.79 855.71 751.6 905.92 751.6 827.94 641.5 899.04 569.63 849.09 569.63"/></clipPath><mask id="mask" x="551.45" y="22.99" width="230.04" height="234.3" maskUnits="userSpaceOnUse"/><clipPath id="clip-path-4" transform="translate(-34.12 -565.3)"><rect class="cls-1" x="628.17" y="622.36" width="144.84" height="187.44"/></clipPath></defs><title>ChattykidsLogoS</title><g class="cls-2"><g id="Layer_1" data-name="Layer 1"><g class="cls-3"><g class="cls-3"><path class="cls-4" d="M1047.67,685.34a80.21,80.21,0,0,1-1.53,15.8,42.93,42.93,0,0,1-5.09,13.64,27.16,27.16,0,0,1-9.56,9.56q-6,3.57-14.91,3.57a26.9,26.9,0,0,1-14.4-3.7,31.74,31.74,0,0,1-9.94-9.68,41.57,41.57,0,0,1-5.73-13.64,66.85,66.85,0,0,1-1.78-15.29,72.63,72.63,0,0,1,1.66-15.67,41.54,41.54,0,0,1,5.35-13.38,28.23,28.23,0,0,1,9.82-9.43q6.12-3.57,15-3.57t14.78,3.57a29.54,29.54,0,0,1,9.56,9.3,38.48,38.48,0,0,1,5.22,13.25,78.34,78.34,0,0,1,1.53,15.67m34.91,66.26v-182l-36.19,3.47v62.8h-0.51a38.85,38.85,0,0,0-16.69-14.65,51.81,51.81,0,0,0-22.3-5q-14.53,0-25.49,5.73a54.6,54.6,0,0,0-18.22,15.16,66.53,66.53,0,0,0-11,21.79,88.86,88.86,0,0,0-3.7,25.61,94.53,94.53,0,0,0,3.7,26.51,70.34,70.34,0,0,0,11,22.56,52.1,52.1,0,0,0,18.48,15.54q11.21,5.74,26,5.74a55.53,55.53,0,0,0,23.32-4.72,37.33,37.33,0,0,0,16.69-15.42h0.51V751.6h34.4Z" transform="translate(-34.12 -565.3)"/><path class="cls-5" d="M424.45,700.63a69.86,69.86,0,0,1-.64,8.15,27.4,27.4,0,0,1-3.44,10.07,23.91,23.91,0,0,1-8.67,8.54Q405.85,731,395.14,731a45.42,45.42,0,0,1-8.41-.76,20.43,20.43,0,0,1-7.14-2.68,13.62,13.62,0,0,1-4.84-5.23,17,17,0,0,1-1.78-8.16,17.58,17.58,0,0,1,1.78-8.41,16.32,16.32,0,0,1,4.71-5.48,23.92,23.92,0,0,1,6.88-3.44,65.22,65.22,0,0,1,8-2q4.33-.77,8.67-1.27t8.28-1.28a58.29,58.29,0,0,0,7.39-1.91,16.24,16.24,0,0,0,5.73-3.19v13.51Zm40.78,51q-2.56-4.07-3.57-12.23a136.9,136.9,0,0,1-1-17.08V653.73q0-12-5.35-19.24a36.7,36.7,0,0,0-13.76-11.34,61.77,61.77,0,0,0-18.61-5.48,148.82,148.82,0,0,0-20.13-1.4A110.91,110.91,0,0,0,381,618.44a62.07,62.07,0,0,0-19.5,7.26,43.31,43.31,0,0,0-14.27,13.51q-5.61,8.41-6.37,21.15l36.19-3.47c0.67-7.14,3.06-8.76,7.14-11.83s9.68-4.58,16.82-4.58a61,61,0,0,1,9,.63,20,20,0,0,1,7.39,2.55,14.07,14.07,0,0,1,5.1,5.35q1.91,3.44,1.91,9.3,0.25,5.6-3.31,8.54a24.49,24.49,0,0,1-9.68,4.46,96.59,96.59,0,0,1-14,2.29q-7.91.77-16.05,2a154.41,154.41,0,0,0-16.18,3.44,45.57,45.57,0,0,0-14.27,6.5,33,33,0,0,0-10.2,11.6q-4,7.26-3.95,18.48a41.34,41.34,0,0,0,3.44,17.59,33.13,33.13,0,0,0,9.55,12.23,40.31,40.31,0,0,0,14.27,7.14,64.82,64.82,0,0,0,17.59,2.29,81.86,81.86,0,0,0,24-3.57A47.16,47.16,0,0,0,426,738.85a53.91,53.91,0,0,0,.89,6.5,50.49,50.49,0,0,0,1.66,6.24h36.7Z" transform="translate(-34.12 -565.3)"/></g><polygon class="cls-4" points="911.04 186.3 874.86 186.3 874.86 58.01 911.04 54.54 911.04 186.3"/><polygon class="cls-4" points="874.85 4.33 911.04 4.33 911.04 34.15 874.85 37.62 874.85 4.33"/><polygon class="cls-4" points="743.86 4.33 743.86 79.77 814.97 4.33 864.92 4.33 793.81 76.2 871.8 186.3 821.59 186.3 766.8 104.49 743.86 127.68 743.86 186.3 703.85 186.3 703.85 4.33 743.86 4.33"/><g class="cls-6"><g class="cls-7"><g class="cls-8"><rect class="cls-9" x="594.05" y="57.07" width="144.84" height="187.44"/></g></g><path class="cls-4" d="M688.39,789.52q-10.46,6.88-29.05,6.88c-3.74,0-27.49-.11-31.74,0v-29.9c3.77,0,26.54.13,30.72,0.07a12.8,12.8,0,0,0,10.57-5.6,18.08,18.08,0,0,0,3.44-10.71,21.72,21.72,0,0,0-1.53-8.15L624.67,618.51h38.48L693,708.73h0.51l28.8-90.22h37.47l-55,148.07q-5.87,16.05-16.31,22.94" transform="translate(-34.12 -565.3)"/></g><g class="cls-3"><path class="cls-5" d="M688.63,790.84q-10.46,6.88-29.05,6.88c-3.74,0-27.49-.11-31.74,0v-29.9c3.77,0,26.54.13,30.72,0.07a12.8,12.8,0,0,0,10.57-5.6,18.08,18.08,0,0,0,3.44-10.71,21.72,21.72,0,0,0-1.53-8.15L624.92,619.84H663.4l29.82,90.22h0.51l28.8-90.22H760l-55,148.07q-5.87,16.05-16.31,22.94" transform="translate(-34.12 -565.3)"/><path class="cls-5" d="M638.12,619.84V644H606.41v65.24q0,9.17,3.06,12.23t12.23,3.06q3.06,0,5.86-.26a48.53,48.53,0,0,0,5.35-.76v28a85.7,85.7,0,0,1-10.19,1q-5.6.25-11,.26a105.84,105.84,0,0,1-15.93-1.15,37.5,37.5,0,0,1-13.25-4.46,23.55,23.55,0,0,1-9-9.43q-3.31-6.12-3.31-16.05V644H548.31V619.84h21.92v-39.5l36.19-3.47v43h31.71Z" transform="translate(-34.12 -565.3)"/><path class="cls-5" d="M545.76,619.84V644H519.26v65.24q0,9.17,3.06,12.23t12.23,3.06q3.06,0,5.86-.26a48.84,48.84,0,0,0,5.35-.76v28a85.79,85.79,0,0,1-10.19,1q-5.61.25-11,.26a105.74,105.74,0,0,1-15.93-1.15,37.53,37.53,0,0,1-13.25-4.46,23.58,23.58,0,0,1-9-9.43q-3.31-6.12-3.31-16.05V644H461.15V619.84h21.92v-39.5l36.19-3.47v43h26.51Z" transform="translate(-34.12 -565.3)"/><path class="cls-5" d="M246.21,566.16v72H247q6.88-11.47,17.59-16.69a47.45,47.45,0,0,1,20.9-5.23q14.52,0,23.83,3.95a35.41,35.41,0,0,1,14.66,11,42.49,42.49,0,0,1,7.52,17.08,106.33,106.33,0,0,1,2.17,22.3v81H297.44V677.18q0-16.3-5.1-24.34t-18.09-8q-14.79,0-21.41,8.79t-6.63,28.92V751.6H210v-182Z" transform="translate(-34.12 -565.3)"/><path class="cls-5" d="M158.75,618.18a40.44,40.44,0,0,0-8.92-10.07,41.74,41.74,0,0,0-26.25-9.17q-13.51,0-22.94,5.22a43.3,43.3,0,0,0-15.29,14,61.31,61.31,0,0,0-8.54,20,99.63,99.63,0,0,0-2.68,23.19,92.62,92.62,0,0,0,2.68,22.3,60.08,60.08,0,0,0,8.54,19.5,43.74,43.74,0,0,0,15.29,13.89q9.43,5.23,22.94,5.22,18.35,0,28.67-11.21c6.88-7.48,11.09-13.86,12.62-26.1l38.74-3.47a92.65,92.65,0,0,1-7.9,30.84,73.89,73.89,0,0,1-16.82,23.45,71.48,71.48,0,0,1-24.46,14.78,89.64,89.64,0,0,1-30.84,5.1q-20.89,0-37.59-7.26a80.45,80.45,0,0,1-28.16-20,88.52,88.52,0,0,1-17.59-29.94,109.88,109.88,0,0,1-6.11-37.08,113.7,113.7,0,0,1,6.11-37.85,91,91,0,0,1,17.59-30.45A80.48,80.48,0,0,1,86,572.69q16.69-7.39,37.59-7.39A91.68,91.68,0,0,1,152,569.63a77.17,77.17,0,0,1,24,12.62,68.27,68.27,0,0,1,17.46,20.51,73.33,73.33,0,0,1,8.66,28l-38.74,3.47c-0.68-4.59-2.21-12.26-4.59-16.08" transform="translate(-34.12 -565.3)"/><path class="cls-4" d="M1124.81,718.85a21.13,21.13,0,0,0,6.24,6.88,26.73,26.73,0,0,0,8.79,3.95,41.3,41.3,0,0,0,10.33,1.27,38.42,38.42,0,0,0,8-.89,27.38,27.38,0,0,0,7.65-2.8,17.4,17.4,0,0,0,5.73-5.09,13.42,13.42,0,0,0,2.29-8q0-8.15-10.83-12.23t-30.2-8.16q-7.9-1.78-15.42-4.21a52.55,52.55,0,0,1-13.38-6.37,31,31,0,0,1-9.43-9.94q-3.57-6-3.57-14.66,0-12.74,5-20.9a36.65,36.65,0,0,1,13.13-12.87,57.64,57.64,0,0,1,18.35-6.63,113.19,113.19,0,0,1,20.9-1.91,104.49,104.49,0,0,1,20.77,2,55.08,55.08,0,0,1,18,6.88,41.32,41.32,0,0,1,13.13,12.87q5.22,8,6.24,20.26l-34.4,4.48c-0.51-7-3.15-16.16-7.9-18.63a36.18,36.18,0,0,0-16.82-3.69,61.68,61.68,0,0,0-6.63.38,22.09,22.09,0,0,0-6.5,1.66,13.37,13.37,0,0,0-5,3.7,9.75,9.75,0,0,0-2,6.5,9.92,9.92,0,0,0,3.57,7.9,27.46,27.46,0,0,0,9.3,5,116.45,116.45,0,0,0,13.13,3.44q7.39,1.53,15,3.31a154.07,154.07,0,0,1,15.42,4.33,50.76,50.76,0,0,1,13.38,6.75,32.76,32.76,0,0,1,9.43,10.45q3.57,6.24,3.57,15.42,0,13-5.22,21.79a41.83,41.83,0,0,1-13.64,14.14,55.75,55.75,0,0,1-19.24,7.52,112.34,112.34,0,0,1-22,2.17,109.35,109.35,0,0,1-22.43-2.29A59.18,59.18,0,0,1,1108,745a43.67,43.67,0,0,1-14-14.15c-3.66-5.86-5.65-8.72-6-17.56l34.4-4.48a19.83,19.83,0,0,0,2.42,10.07" transform="translate(-34.12 -565.3)"/></g></g></g></g></svg>